<?xml version="1.0" encoding="utf-8"?>
<!-- Generator: Adobe Illustrator 19.2.1, SVG Export Plug-In . SVG Version: 6.00 Build 0)  -->
<svg version="1.1" id="レイヤー_1" xmlns="http://www.w3.org/2000/svg" xmlns:xlink="http://www.w3.org/1999/xlink" x="0px"
	 y="0px" viewBox="0 0 300 300" style="enable-background:new 0 0 300 300;" xml:space="preserve">
<style type="text/css">
	.st0{fill:#ED7255;}
	.st1{opacity:0.5;}
	.st2{fill:#99361F;}
	.st3{fill:#FFFFFF;}
	.st4{fill:#5D90C2;}
	.st5{clip-path:url(#SVGID_2_);}
	.st6{fill:#B5472D;}
</style>
<circle class="st0" cx="150.2" cy="150.2" r="147.8"/>
<g class="st1">
	<path class="st2" d="M46.2,117.7c-0.1-3.1,2.4-5.6,5.5-5.7c0.1,0,0.1,0,0.2,0c3,0.1,5.5,2.6,5.5,5.7v38.2c0,14.4-8.5,22-20.1,22
		c-14,0-21.4-11-21.4-17.1c0-2.9,2.4-5.2,5.3-5.2c0,0,0,0,0,0c2.2,0,3.6,1,5.8,4.7s4.5,6.7,9.7,6.7c9.6,0,9.6-10,9.6-16.4
		L46.2,117.7L46.2,117.7z"/>
	<path class="st2" d="M78.2,172.5c0,3-2.5,5.3-5.4,5.3c-0.1,0-0.2,0-0.3,0c-2.8,0.2-5.3-1.9-5.4-4.8c0-0.1,0-0.2,0-0.4v-49.3
		c0-7.2,4-9.8,9.5-9.8h17c12.1,0,18.2,9.1,18.2,19.2c0,12.5-8,20-18.2,20H78.2V172.5z M90.4,141.9c5.7,0,10.1-2.6,10.1-9.1
		c0-7.1-5.5-8.9-9.4-8.9h-8.9c-2.7,0-3.8,0.3-3.8,3.1v14.8L90.4,141.9L90.4,141.9z"/>
	<path class="st2" d="M147.9,170.9c-14.3,0-26-11.6-26-26c0-14.3,11.6-26,26-26c14.3,0,26,11.6,26,26l0,0
		C173.9,159.2,162.2,170.8,147.9,170.9z"/>
	<path class="st2" d="M147.9,125.8c10.5,0,19.1,8.5,19.1,19.1c0,10.5-8.5,19.1-19.1,19.1c-10.5,0-19.1-8.5-19.1-19.1v0
		C128.8,134.3,137.4,125.8,147.9,125.8 M147.9,112c-18.2,0-32.9,14.7-32.9,32.9s14.7,32.9,32.9,32.9s32.9-14.7,32.9-32.9
		S166.1,112,147.9,112L147.9,112L147.9,112z"/>
	<path class="st2" d="M147.9,112c-18.2,0-32.9,14.7-32.9,32.9s14.7,32.9,32.9,32.9s32.9-14.7,32.9-32.9S166.1,112,147.9,112
		L147.9,112z"/>
	<path class="st2" d="M147.9,113.8c17.2,0,31.1,13.9,31.1,31.1s-13.9,31.1-31.1,31.1c-17.2,0-31.1-13.9-31.1-31.1
		C116.8,127.7,130.7,113.8,147.9,113.8 M147.9,112c-18.2,0-32.9,14.7-32.9,32.9s14.7,32.9,32.9,32.9s32.9-14.7,32.9-32.9
		S166.1,112,147.9,112L147.9,112L147.9,112z"/>
	<path class="st2" d="M231.8,124.6c0,3.1-2.6,5.6-5.7,5.6c0,0,0,0,0,0c-1,0-2,0-5-2.5c-3.6-3.3-8.3-5.1-13.1-4.9
		c-7.5,0-9.7,3.9-9.7,7.2c0,5,3.4,6.6,14.7,9.8c14.7,4.2,19.3,10.2,19.3,18.8c0,12.7-11.6,19.2-23,19.2c-15.7,0-25.7-11.5-25.7-16.7
		c0-3.1,2.4-5.6,5.5-5.7c0.1,0,0.1,0,0.2,0c2.4,0,2.9,0.5,6.6,4.7c3.4,4.2,8.6,6.6,14,6.5c5.7,0,10.8-3,10.8-7.6
		c0-4.5-3.3-6.3-15.9-10.2c-13.2-4.1-18.2-10.1-18.2-18.7c0-10.7,8.1-18.2,21.4-18.2C218.1,112,231.8,118.1,231.8,124.6z"/>
	<path class="st2" d="M265.1,172.5c0,2.9-2.4,5.3-5.3,5.3c-0.1,0-0.2,0-0.3,0c-2.8,0.2-5.3-2-5.4-4.8c0-0.1,0-0.2,0-0.3v-48.2h-13.8
		c-2.9,0.2-5.4-2.1-5.6-5c0-0.2,0-0.3,0-0.5c0.1-3,2.6-5.4,5.6-5.5h38.6c3.1,0,5.6,2.6,5.6,5.7c0,0,0,0.1,0,0.1
		c-0.1,2.9-2.5,5.3-5.4,5.2c-0.1,0-0.1,0-0.2,0h-13.8L265.1,172.5L265.1,172.5z"/>
	<path class="st2" d="M46.2,117.7c-0.1-3.1,2.4-5.6,5.5-5.7c0.1,0,0.1,0,0.2,0c3,0.1,5.5,2.6,5.5,5.7v38.2c0,14.4-8.5,22-20.1,22
		c-14,0-21.4-11-21.4-17.1c0-2.9,2.4-5.2,5.3-5.2c0,0,0,0,0,0c2.2,0,3.6,1,5.8,4.7s4.5,6.7,9.7,6.7c9.6,0,9.6-10,9.6-16.4
		L46.2,117.7L46.2,117.7z"/>
	<path class="st2" d="M78.2,172.5c0,3-2.5,5.3-5.4,5.3c-0.1,0-0.2,0-0.3,0c-2.8,0.2-5.3-1.9-5.4-4.8c0-0.1,0-0.2,0-0.4v-49.3
		c0-7.2,4-9.8,9.5-9.8h17c12.1,0,18.2,9.1,18.2,19.2c0,12.5-8,20-18.2,20H78.2V172.5z M90.4,141.9c5.7,0,10.1-2.6,10.1-9.1
		c0-7.1-5.5-8.9-9.4-8.9h-8.9c-2.7,0-3.8,0.3-3.8,3.1v14.8L90.4,141.9L90.4,141.9z"/>
	<path class="st2" d="M147.9,170.9c-14.3,0-26-11.6-26-26c0-14.3,11.6-26,26-26c14.3,0,26,11.6,26,26l0,0
		C173.9,159.2,162.2,170.8,147.9,170.9z"/>
	<path class="st2" d="M147.9,125.8c10.5,0,19.1,8.5,19.1,19.1c0,10.5-8.5,19.1-19.1,19.1c-10.5,0-19.1-8.5-19.1-19.1v0
		C128.8,134.3,137.4,125.8,147.9,125.8 M147.9,112c-18.2,0-32.9,14.7-32.9,32.9s14.7,32.9,32.9,32.9s32.9-14.7,32.9-32.9
		S166.1,112,147.9,112L147.9,112L147.9,112z"/>
	<path class="st2" d="M147.9,112c-18.2,0-32.9,14.7-32.9,32.9s14.7,32.9,32.9,32.9s32.9-14.7,32.9-32.9S166.1,112,147.9,112
		L147.9,112z"/>
	<path class="st2" d="M147.9,113.8c17.2,0,31.1,13.9,31.1,31.1s-13.9,31.1-31.1,31.1c-17.2,0-31.1-13.9-31.1-31.1
		C116.8,127.7,130.7,113.8,147.9,113.8 M147.9,112c-18.2,0-32.9,14.7-32.9,32.9s14.7,32.9,32.9,32.9s32.9-14.7,32.9-32.9
		S166.1,112,147.9,112L147.9,112L147.9,112z"/>
	<path class="st2" d="M231.8,124.6c0,3.1-2.6,5.6-5.7,5.6c0,0,0,0,0,0c-1,0-2,0-5-2.5c-3.6-3.3-8.3-5.1-13.1-4.9
		c-7.5,0-9.7,3.9-9.7,7.2c0,5,3.4,6.6,14.7,9.8c14.7,4.2,19.3,10.2,19.3,18.8c0,12.7-11.6,19.2-23,19.2c-15.7,0-25.7-11.5-25.7-16.7
		c0-3.1,2.4-5.6,5.5-5.7c0.1,0,0.1,0,0.2,0c2.4,0,2.9,0.5,6.6,4.7c3.4,4.2,8.6,6.6,14,6.5c5.7,0,10.8-3,10.8-7.6
		c0-4.5-3.3-6.3-15.9-10.2c-13.2-4.1-18.2-10.1-18.2-18.7c0-10.7,8.1-18.2,21.4-18.2C218.1,112,231.8,118.1,231.8,124.6z"/>
	<path class="st2" d="M265.1,172.5c0,2.9-2.4,5.3-5.3,5.3c-0.1,0-0.2,0-0.3,0c-2.8,0.2-5.3-2-5.4-4.8c0-0.1,0-0.2,0-0.3v-48.2h-13.8
		c-2.9,0.2-5.4-2.1-5.6-5c0-0.2,0-0.3,0-0.5c0.1-3,2.6-5.4,5.6-5.5h38.6c3.1,0,5.6,2.6,5.6,5.7c0,0,0,0.1,0,0.1
		c-0.1,2.9-2.5,5.3-5.4,5.2c-0.1,0-0.1,0-0.2,0h-13.8L265.1,172.5L265.1,172.5z"/>
	<path class="st2" d="M46.2,117.7c-0.1-3.1,2.4-5.6,5.5-5.7c0.1,0,0.1,0,0.2,0c3,0.1,5.5,2.6,5.5,5.7v38.2c0,14.4-8.5,22-20.1,22
		c-14,0-21.4-11-21.4-17.1c0-2.9,2.4-5.2,5.3-5.2c0,0,0,0,0,0c2.2,0,3.6,1,5.8,4.7s4.5,6.7,9.7,6.7c9.6,0,9.6-10,9.6-16.4
		L46.2,117.7L46.2,117.7z"/>
	<path class="st2" d="M78.2,172.5c0,3-2.5,5.3-5.4,5.3c-0.1,0-0.2,0-0.3,0c-2.8,0.2-5.3-1.9-5.4-4.8c0-0.1,0-0.2,0-0.4v-49.3
		c0-7.2,4-9.8,9.5-9.8h17c12.1,0,18.2,9.1,18.2,19.2c0,12.5-8,20-18.2,20H78.2V172.5z M90.4,141.9c5.7,0,10.1-2.6,10.1-9.1
		c0-7.1-5.5-8.9-9.4-8.9h-8.9c-2.7,0-3.8,0.3-3.8,3.1v14.8L90.4,141.9L90.4,141.9z"/>
	<path class="st2" d="M147.9,170.9c-14.3,0-26-11.6-26-26c0-14.3,11.6-26,26-26c14.3,0,26,11.6,26,26l0,0
		C173.9,159.2,162.2,170.8,147.9,170.9z"/>
	<path class="st2" d="M147.9,125.8c10.5,0,19.1,8.5,19.1,19.1c0,10.5-8.5,19.1-19.1,19.1c-10.5,0-19.1-8.5-19.1-19.1v0
		C128.8,134.3,137.4,125.8,147.9,125.8 M147.9,112c-18.2,0-32.9,14.7-32.9,32.9s14.7,32.9,32.9,32.9s32.9-14.7,32.9-32.9
		S166.1,112,147.9,112L147.9,112L147.9,112z"/>
	<path class="st2" d="M147.9,112c-18.2,0-32.9,14.7-32.9,32.9s14.7,32.9,32.9,32.9s32.9-14.7,32.9-32.9S166.1,112,147.9,112
		L147.9,112z"/>
	<path class="st2" d="M147.9,113.8c17.2,0,31.1,13.9,31.1,31.1s-13.9,31.1-31.1,31.1c-17.2,0-31.1-13.9-31.1-31.1
		C116.8,127.7,130.7,113.8,147.9,113.8 M147.9,112c-18.2,0-32.9,14.7-32.9,32.9s14.7,32.9,32.9,32.9s32.9-14.7,32.9-32.9
		S166.1,112,147.9,112L147.9,112L147.9,112z"/>
	<path class="st2" d="M231.8,124.6c0,3.1-2.6,5.6-5.7,5.6c0,0,0,0,0,0c-1,0-2,0-5-2.5c-3.6-3.3-8.3-5.1-13.1-4.9
		c-7.5,0-9.7,3.9-9.7,7.2c0,5,3.4,6.6,14.7,9.8c14.7,4.2,19.3,10.2,19.3,18.8c0,12.7-11.6,19.2-23,19.2c-15.7,0-25.7-11.5-25.7-16.7
		c0-3.1,2.4-5.6,5.5-5.7c0.1,0,0.1,0,0.2,0c2.4,0,2.9,0.5,6.6,4.7c3.4,4.2,8.6,6.6,14,6.5c5.7,0,10.8-3,10.8-7.6
		c0-4.5-3.3-6.3-15.9-10.2c-13.2-4.1-18.2-10.1-18.2-18.7c0-10.7,8.1-18.2,21.4-18.2C218.1,112,231.8,118.1,231.8,124.6z"/>
	<path class="st2" d="M265.1,172.5c0,2.9-2.4,5.3-5.3,5.3c-0.1,0-0.2,0-0.3,0c-2.8,0.2-5.3-2-5.4-4.8c0-0.1,0-0.2,0-0.3v-48.2h-13.8
		c-2.9,0.2-5.4-2.1-5.6-5c0-0.2,0-0.3,0-0.5c0.1-3,2.6-5.4,5.6-5.5h38.6c3.1,0,5.6,2.6,5.6,5.7c0,0,0,0.1,0,0.1
		c-0.1,2.9-2.5,5.3-5.4,5.2c-0.1,0-0.1,0-0.2,0h-13.8L265.1,172.5L265.1,172.5z"/>
	<circle class="st2" cx="51.9" cy="96.1" r="12.1"/>
</g>
<path class="st3" d="M46.2,112.2c-0.1-3.1,2.4-5.6,5.5-5.7c0.1,0,0.1,0,0.2,0c3,0.1,5.5,2.6,5.5,5.7v38.2c0,14.4-8.5,22-20.1,22
	c-14,0-21.4-11-21.4-17.1c0-2.9,2.4-5.2,5.3-5.2c0,0,0,0,0,0c2.2,0,3.6,1,5.8,4.7s4.5,6.7,9.7,6.7c9.6,0,9.6-10,9.6-16.4L46.2,112.2
	L46.2,112.2z"/>
<path class="st3" d="M78.2,167c0,3-2.5,5.3-5.4,5.3c-0.1,0-0.2,0-0.3,0c-2.8,0.2-5.3-1.9-5.4-4.8c0-0.1,0-0.2,0-0.4v-49.3
	c0-7.2,4-9.8,9.5-9.8h17c12.1,0,18.2,9.1,18.2,19.2c0,12.5-8,20-18.2,20H78.2V167z M90.4,136.4c5.7,0,10.1-2.6,10.1-9.1
	c0-7.1-5.5-8.9-9.4-8.9h-8.9c-2.7,0-3.8,0.3-3.8,3.1v14.8L90.4,136.4L90.4,136.4z"/>
<path class="st3" d="M147.9,120.3c10.5,0,19.1,8.5,19.1,19.1c0,10.5-8.5,19.1-19.1,19.1c-10.5,0-19.1-8.5-19.1-19.1l0,0
	C128.8,128.9,137.4,120.4,147.9,120.3 M147.9,106.5c-18.2,0-32.9,14.7-32.9,32.9s14.7,32.9,32.9,32.9s32.9-14.7,32.9-32.9
	S166.1,106.5,147.9,106.5L147.9,106.5L147.9,106.5z"/>
<path class="st3" d="M147.9,106.5c-18.2,0-32.9,14.7-32.9,32.9s14.7,32.9,32.9,32.9s32.9-14.7,32.9-32.9S166.1,106.5,147.9,106.5
	L147.9,106.5z"/>
<path class="st3" d="M231.8,119.1c0,3.1-2.6,5.6-5.7,5.6c0,0,0,0,0,0c-1,0-2,0-5-2.5c-3.6-3.3-8.3-5.1-13.1-4.9
	c-7.5,0-9.7,3.9-9.7,7.2c0,5,3.4,6.6,14.7,9.8c14.7,4.2,19.3,10.2,19.3,18.8c0,12.7-11.6,19.2-23,19.2c-15.7,0-25.7-11.5-25.7-16.7
	c0-3.1,2.4-5.6,5.5-5.7c0.1,0,0.1,0,0.2,0c2.4,0,2.9,0.5,6.6,4.7c3.4,4.2,8.6,6.6,14,6.5c5.7,0,10.8-3,10.8-7.6s-3.3-6.3-15.9-10.2
	c-13.2-4.1-18.2-10.1-18.2-18.7c0-10.7,8.1-18.2,21.4-18.2C218.1,106.5,231.8,112.6,231.8,119.1z"/>
<path class="st3" d="M265.1,167c0,2.9-2.4,5.3-5.3,5.3c-0.1,0-0.2,0-0.3,0c-2.8,0.2-5.3-2-5.4-4.8c0-0.1,0-0.2,0-0.3V119h-13.8
	c-2.9,0.2-5.4-2.1-5.6-5c0-0.2,0-0.3,0-0.5c0.1-3,2.6-5.4,5.6-5.5h38.6c3.1,0,5.6,2.6,5.6,5.7c0,0,0,0.1,0,0.1
	c-0.1,2.9-2.6,5.2-5.5,5.1c0,0,0,0-0.1,0h-13.8L265.1,167L265.1,167z"/>
<circle class="st4" cx="51.9" cy="90.6" r="12.1"/>
<path class="st2" d="M251.9,221.4H48.4c-9.8,0-17.7-7.9-17.7-17.7l0,0l0,0c0-9.8,7.9-17.7,17.7-17.7l0,0h203.5
	c9.8,0,17.7,7.9,17.7,17.7l0,0l0,0C269.7,213.4,261.7,221.4,251.9,221.4L251.9,221.4z"/>
<g>
	<defs>
		<path id="SVGID_1_" d="M251.9,221.4H48.4c-9.8,0-17.7-7.9-17.7-17.7l0,0l0,0c0-9.8,7.9-17.7,17.7-17.7l0,0h203.5
			c9.8,0,17.7,7.9,17.7,17.7l0,0l0,0C269.7,213.4,261.7,221.4,251.9,221.4L251.9,221.4z"/>
	</defs>
	<clipPath id="SVGID_2_">
		<use xlink:href="#SVGID_1_"  style="overflow:visible;"/>
	</clipPath>
	<g class="st5">
		<path class="st6" d="M251.9,225.1H48.4c-9.8,0-17.7-7.9-17.7-17.7l0,0l0,0c0-9.8,7.9-17.7,17.7-17.7l0,0h203.5
			c9.8,0,17.7,7.9,17.7,17.7l0,0l0,0C269.7,217.1,261.7,225.1,251.9,225.1L251.9,225.1z"/>
	</g>
</g>
<path class="st4" d="M147.9,161.1c-12,0-21.7-9.7-21.7-21.7c0-12,9.7-21.7,21.7-21.7c12,0,21.7,9.7,21.7,21.7l0,0
	C169.5,151.4,159.8,161,147.9,161.1z"/>
<path class="st2" d="M46.3,213c0,0.5-0.4,1-0.9,1c0,0-0.1,0-0.1,0c-0.5,0-1-0.4-1-0.9c0,0,0,0,0-0.1v-11.4c-0.1-0.9,0.5-1.8,1.4-2
	c0.1,0,0.3,0,0.4,0h5c2.1-0.2,3.9,1.4,4.1,3.5c0,0.1,0,0.3,0,0.5c0,1.1-0.4,2.2-1.2,3c-0.6,0.5-1.3,0.8-2.1,0.9
	c0.5,0.3,0.9,0.7,1.2,1.2l2.2,3.6c0.1,0.2,0.2,0.5,0.3,0.7c0,0.5-0.5,1-1,1c0,0,0,0,0,0c-0.4,0-0.8-0.2-1-0.6l-1.7-2.9
	c-0.9-1.5-1.7-2.9-2.9-2.9h-2.6v5.5V213z M50.8,205.8c1.1,0.2,2.1-0.4,2.4-1.5c0-0.1,0-0.3,0-0.4c0.2-1.1-0.6-2.1-1.7-2.2
	c-0.2,0-0.4,0-0.6,0h-3.9c-0.4,0-0.8,0-0.8,0.7v3.3h4.5V205.8z"/>
<path class="st2" d="M59.6,209.2c-0.2,1.5,0.8,2.8,2.3,3.1c0.1,0,0.1,0,0.2,0c0.9,0,1.7-0.6,2.1-1.4c0.2-0.3,0.5-0.5,0.8-0.5
	c0.5,0,0.8,0.4,0.8,0.9c0,0,0,0,0,0c-0.4,1.7-1.9,2.8-3.6,2.7c-1.5,0-4.4-0.7-4.4-5.5c-0.2-1.5,0.3-3.1,1.3-4.3
	c0.7-0.8,1.8-1.3,2.9-1.3c2.3,0.1,4,2,4,4.2c0,0.1,0,0.2,0,0.3c0,1-0.3,1.6-1.3,1.6L59.6,209.2L59.6,209.2z M63.5,207.3
	c0.4,0,0.4-0.1,0.4-0.3c0.1-1.2-0.8-2.2-2-2.2c0,0,0,0,0,0c-1.3,0.1-2.3,1.3-2.2,2.6L63.5,207.3L63.5,207.3z"/>
<path class="st2" d="M68.8,204.7c0-0.8,0-1.6,0.8-1.6c0.6,0.1,1.1,0.7,1,1.3c0,0,0,0,0,0.1c0.6-0.9,1.7-1.5,2.9-1.4
	c2.9,0,4.3,2.6,4.3,5.5s-1.4,5.5-4.1,5.5c-1.1,0-2.2-0.4-2.9-1.2v2.3c0,0.5-0.4,0.9-0.9,1c0,0,0,0-0.1,0c-0.5,0-1-0.4-1-0.9
	C68.8,215.1,68.8,204.7,68.8,204.7z M70.6,209.6c0.1,1.4,1.3,2.5,2.7,2.5c2.3,0,2.5-2.5,2.5-3.5s-0.2-3.6-2.5-3.6
	c-1.4,0-2.6,1.1-2.6,2.5L70.6,209.6L70.6,209.6z"/>
<path class="st2" d="M89.7,208.5c0,2.5-1.1,5.5-4.7,5.5c-3.5,0-4.7-2.9-4.7-5.5c0-2.5,1.1-5.5,4.7-5.5
	C88.6,203.1,89.7,206,89.7,208.5z M82.2,208.5c-0.3,1.6,0.8,3.2,2.4,3.5c0.1,0,0.2,0,0.3,0c2.5,0,2.7-2.5,2.7-3.4
	c0-1.4-0.4-3.6-2.7-3.6S82.2,207,82.2,208.5L82.2,208.5z"/>
<path class="st2" d="M91.9,211.2c0-0.5,0.4-0.9,0.8-0.9c0,0,0,0,0.1,0c0.5,0,0.9,0.3,1,0.7c0.6,0.8,1.6,1.2,2.6,1.2
	c0.9,0.1,1.7-0.5,1.8-1.3c0-0.1,0-0.1,0-0.2c0-0.9-0.9-1.2-2.1-1.5c-3.1-0.7-3.8-1.8-3.8-3.1c0.1-1.8,1.7-3.2,3.5-3.1
	c0,0,0.1,0,0.1,0c1.8,0,3.9,1.1,3.9,2.1c0,0.5-0.4,0.9-0.8,0.9c0,0,0,0,0,0c-0.4,0-0.8-0.3-1.1-0.6c-0.5-0.4-1.2-0.6-1.8-0.6
	c-0.8-0.2-1.6,0.4-1.8,1.2c0,0,0,0,0,0.1c0,0.8,0.4,0.9,2.9,1.6c1.6,0.1,2.8,1.4,2.9,3c-0.2,2-1.9,3.5-3.9,3.3c0,0,0,0,0,0
	C94.2,214.1,92.5,213,91.9,211.2z"/>
<path class="st2" d="M105.9,200.7c0,0.7-0.6,1.3-1.3,1.3c-0.7,0-1.3-0.6-1.3-1.3s0.6-1.3,1.3-1.3
	C105.3,199.4,105.9,199.9,105.9,200.7C105.9,200.7,105.9,200.7,105.9,200.7z M105.5,213c0,0.5-0.4,1-1,1c-0.5,0-0.9-0.5-0.9-1v-9
	c0-0.5,0.4-1,1-1c0.5,0,0.9,0.5,0.9,1V213L105.5,213z"/>
<path class="st2" d="M109.4,205.2c-0.5,0-0.9-0.4-0.8-0.9c0,0,0,0,0,0c0-0.5,0.4-0.9,0.8-0.9c0.1,0,0.1,0,0.2,0h1v-2
	c0-0.5,0.4-0.9,0.9-0.9c0,0,0,0,0,0c0.5,0,0.9,0.4,0.9,0.9c0,0,0,0,0,0.1v1.9h2.3c0.5,0,0.9,0.4,0.8,0.9c0,0,0,0,0,0
	c0,0.5-0.4,0.8-0.8,0.9h-2.3v6c-0.1,0.3,0.1,0.7,0.4,0.7c0,0,0.1,0,0.1,0c0.5-0.1,0.9-0.5,1.1-1c0.2-0.2,0.4-0.3,0.7-0.3
	c0.5,0,0.9,0.5,0.9,1c-0.2,1.4-1.3,2.4-2.7,2.4c-1.3,0.1-2.3-0.9-2.4-2.1c0-0.2,0-0.4,0-0.6v-6.1H109.4L109.4,205.2z"/>
<path class="st2" d="M127,208.5c0,2.5-1.1,5.5-4.7,5.5c-3.5,0-4.7-2.9-4.7-5.5c0-2.5,1.1-5.5,4.7-5.5C125.9,203.1,127,206,127,208.5
	z M119.5,208.5c-0.3,1.6,0.8,3.2,2.4,3.5c0.1,0,0.2,0,0.3,0c2.5,0,2.7-2.5,2.7-3.4c0-1.4-0.4-3.6-2.7-3.6
	C119.9,205,119.5,207,119.5,208.5z"/>
<path class="st2" d="M131.9,213.1c0,0.5-0.4,0.9-0.9,0.9c0,0-0.1,0-0.1,0c-0.5,0-0.9-0.4-0.9-0.9c0,0,0,0,0,0v-8.6
	c-0.2-0.6,0.2-1.2,0.8-1.4c0.1,0,0.1,0,0.2,0c0.9,0,0.9,0.8,0.9,1.4v0.4c0.6-1.1,1.7-1.8,2.9-1.8c0.3,0,1.8,0.2,1.8,1.1
	c0,0.5-0.3,0.9-0.8,0.9c0,0,0,0,0,0c-0.2,0-1-0.2-1.1-0.2c-1.5,0-2.9,2.6-2.9,3.1L131.9,213.1L131.9,213.1z"/>
<path class="st2" d="M138.9,204.7c-0.1-0.2-0.2-0.4-0.2-0.6c0-0.5,0.4-1,1-1c0.4,0,0.8,0.2,0.9,0.6l2.7,5.5c0.3,0.7,0.4,0.8,0.7,0.9
	l2.8-6.4c0.1-0.4,0.5-0.7,0.9-0.7c0.5,0,1,0.4,1,0.9c0,0.1,0,0.1,0,0.2c0,0.2,0,0.3-0.1,0.5l-4,9.1c-0.4,1.5-1.8,2.4-3.4,2.3
	c-1.6,0-2.5-0.5-2.5-1.4c0-0.5,0.4-1,0.9-1c0,0,0,0,0,0c0.2,0,0.4,0.1,0.6,0.1c0.4,0.1,0.7,0.2,1.1,0.2c0.7,0,1.2-0.2,1.8-1.9
	c-0.5-0.2-1-0.6-1.1-1.2L138.9,204.7z"/>
<path class="st2" d="M170.2,213.7c-0.9,0.1-1.7-0.6-1.7-1.5c0-0.2,0-0.3,0-0.5v-10.2c-0.1-0.9,0.5-1.7,1.4-1.8c0.1,0,0.2,0,0.2,0
	h3.4c3.6,0,5.9,3,5.9,7c0,3.6-1.9,7-5.6,7L170.2,213.7L170.2,213.7z M170.5,211c0,0.3,0.2,0.6,0.4,0.6c0,0,0.1,0,0.1,0h2.3
	c3,0,3.9-2.7,3.9-4.9s-0.7-4.9-4.4-4.9h-1.6c-0.4-0.1-0.8,0.2-0.9,0.6c0,0.1,0,0.2,0,0.3L170.5,211L170.5,211z"/>
<path class="st2" d="M189,206.6c0-0.4-0.2-0.8-0.4-1.1c-0.5-0.5-1.2-0.7-1.8-0.6c-0.9-0.1-1.8,0.2-2.5,0.7c-0.2,0.2-0.5,0.4-0.9,0.4
	c-0.5,0-0.9-0.5-0.9-1c0,0,0,0,0,0c0-1,1.8-1.9,4-1.9c1.3-0.1,2.6,0.3,3.6,1.1c0.5,0.6,0.8,1.3,0.8,2.1v4.9c0,0.4,0.1,0.8,0.2,1.2
	c0.1,0.3,0.2,0.6,0.3,0.9c0,0.5-0.5,0.8-0.9,0.8c0,0,0,0,0,0c-0.6,0-1.1-0.5-1.1-1.2c0,0,0-0.1,0-0.1c-0.9,0.9-2.1,1.3-3.3,1.2
	c-3.6,0-4.1-2.5-4.1-3.5c0-1,0.6-3.6,4.6-3.6c0.9,0,1.7,0.1,2.5,0.5L189,206.6L189,206.6z M189,209.4c0,0-0.3-0.8-2.3-0.8
	c-0.9,0-2.9,0-2.9,1.8c0.1,1.1,1,1.8,2.1,1.7c0,0,0.1,0,0.1,0c1.3,0.2,2.5-0.6,2.9-1.8V209.4z"/>
<path class="st2" d="M194.3,205.2c-0.5,0-0.9-0.4-0.8-0.9c0,0,0,0,0,0c0-0.5,0.4-0.9,0.8-0.9c0.1,0,0.1,0,0.2,0h1v-2
	c0-0.5,0.4-0.9,0.9-0.9c0,0,0,0,0,0c0.5,0,0.9,0.4,0.9,0.9c0,0,0,0,0,0.1v1.9h2.3c0.5,0,0.9,0.4,0.8,0.9c0,0,0,0,0,0
	c0,0.5-0.4,0.8-0.8,0.9h-2.3v6c-0.1,0.3,0.1,0.7,0.4,0.7c0,0,0.1,0,0.1,0c0.5-0.1,0.9-0.5,1.1-1c0.2-0.2,0.4-0.3,0.7-0.3
	c0.5,0,0.9,0.5,0.9,1c-0.2,1.4-1.3,2.4-2.7,2.4c-1.3,0.1-2.3-0.9-2.4-2.1c0-0.2,0-0.4,0-0.6v-6.1H194.3L194.3,205.2z"/>
<path class="st2" d="M209.5,206.6c0-0.4-0.2-0.8-0.4-1.1c-0.5-0.5-1.2-0.7-1.8-0.6c-0.9-0.1-1.8,0.2-2.5,0.7
	c-0.2,0.2-0.5,0.4-0.9,0.4c-0.5,0-0.9-0.5-0.9-1c0,0,0,0,0,0c0-1,1.8-1.9,4-1.9c1.3-0.1,2.6,0.3,3.6,1.1c0.5,0.6,0.8,1.3,0.8,2.1
	v4.9c0,0.4,0.1,0.8,0.2,1.2c0.1,0.3,0.2,0.6,0.3,0.9c0,0.5-0.5,0.8-0.9,0.8c0,0,0,0,0,0c-0.6,0-1.1-0.5-1.1-1.2c0,0,0-0.1,0-0.1
	c-0.9,0.9-2.1,1.3-3.3,1.2c-3.6,0-4.1-2.5-4.1-3.5c0-1,0.6-3.6,4.6-3.6c0.9,0,1.7,0.1,2.5,0.5L209.5,206.6L209.5,206.6z
	 M209.5,209.4c0,0-0.3-0.8-2.3-0.8c-0.9,0-2.9,0-2.9,1.8c0.1,1.1,1,1.8,2.1,1.7c0,0,0.1,0,0.1,0c1.3,0.2,2.5-0.6,2.9-1.8V209.4z"/>
<path class="st2" d="M214.7,200.3c-0.1-0.5,0.1-1,0.6-1.2c0.5-0.1,1,0.1,1.2,0.6c0,0.2,0,0.3,0,0.5v3.9c0.8-0.8,1.8-1.2,2.9-1.2
	c2.8,0,4.1,2.5,4.1,5.5s-1.4,5.5-4.3,5.5c-1.1,0.1-2.2-0.4-2.9-1.4c0.1,0.6-0.3,1.2-0.9,1.4c0,0,0,0,0,0c-0.8,0-0.8-0.8-0.8-1.6
	L214.7,200.3L214.7,200.3z M216.6,209.5c0,1.4,1.2,2.5,2.6,2.5c2.4,0,2.5-2.6,2.5-3.6c0-1.1-0.2-3.5-2.5-3.5c-1.4,0-2.6,1.1-2.6,2.5
	V209.5L216.6,209.5z"/>
<path class="st2" d="M233.3,206.6c0-0.4-0.2-0.8-0.4-1.1c-0.5-0.5-1.2-0.7-1.8-0.6c-0.9-0.1-1.8,0.2-2.5,0.7
	c-0.2,0.2-0.5,0.4-0.9,0.4c-0.5,0-0.9-0.5-0.9-1c0,0,0,0,0,0c0-1,1.8-1.9,4-1.9c1.3-0.1,2.6,0.3,3.6,1.1c0.5,0.6,0.8,1.3,0.8,2.1
	v4.9c0,0.4,0.1,0.8,0.2,1.2c0.1,0.3,0.2,0.6,0.3,0.9c0,0.5-0.5,0.8-0.9,0.8c0,0,0,0,0,0c-0.6,0-1.1-0.5-1.1-1.2c0,0,0-0.1,0-0.1
	c-0.9,0.9-2.1,1.3-3.3,1.2c-3.6,0-4.1-2.5-4.1-3.5c0-1,0.6-3.6,4.6-3.6c0.9,0,1.7,0.1,2.5,0.5L233.3,206.6L233.3,206.6z
	 M233.3,209.4c0,0-0.3-0.8-2.3-0.8c-0.9,0-2.9,0-2.9,1.8c0.1,1.1,1,1.8,2.1,1.7c0,0,0.1,0,0.1,0c1.3,0.2,2.5-0.6,2.9-1.8V209.4z"/>
<path class="st2" d="M237.8,211.2c0-0.5,0.4-0.9,0.8-0.9c0,0,0,0,0.1,0c0.5,0,0.9,0.3,1,0.7c0.6,0.8,1.6,1.2,2.6,1.2
	c0.9,0.1,1.7-0.5,1.8-1.3c0-0.1,0-0.1,0-0.2c0-0.9-0.9-1.2-2.1-1.5c-3.1-0.7-3.8-1.8-3.8-3.1c0.1-1.8,1.7-3.2,3.5-3.1
	c0,0,0.1,0,0.1,0c1.8,0,3.9,1.1,3.9,2.1c0,0.5-0.4,0.9-0.8,0.9c0,0,0,0,0,0c-0.4,0-0.8-0.3-1.1-0.6c-0.5-0.4-1.2-0.6-1.8-0.6
	c-0.8-0.2-1.6,0.4-1.8,1.2c0,0,0,0,0,0.1c0,0.8,0.4,0.9,2.9,1.6c1.6,0,2.9,1.4,3,3c-0.2,2-1.9,3.5-3.9,3.3c0,0,0,0,0,0
	C240.3,214.1,238.5,213,237.8,211.2z"/>
<path class="st2" d="M250.5,209.2c-0.2,1.5,0.8,2.8,2.3,3.1c0.1,0,0.1,0,0.2,0c0.9,0,1.7-0.6,2.1-1.4c0.2-0.3,0.5-0.5,0.8-0.5
	c0.5,0,0.8,0.4,0.8,0.9c0,0,0,0,0,0c-0.4,1.7-1.9,2.8-3.6,2.7c-1.5,0-4.4-0.7-4.4-5.5c-0.2-1.5,0.3-3.1,1.3-4.3
	c0.7-0.8,1.8-1.3,2.9-1.3c2.3,0.1,4,2,4,4.2c0,0.1,0,0.2,0,0.3c0,1-0.3,1.6-1.3,1.6L250.5,209.2L250.5,209.2z M254.4,207.3
	c0.4,0,0.4-0.1,0.4-0.3c0.1-1.2-0.8-2.2-2-2.2c0,0,0,0,0,0c-1.3,0.1-2.3,1.3-2.2,2.6L254.4,207.3L254.4,207.3z"/>
<path class="st2" d="M46.3,213c0,0.5-0.4,1-0.9,1c0,0-0.1,0-0.1,0c-0.5,0-1-0.4-1-0.9c0,0,0,0,0-0.1v-11.4c-0.1-0.9,0.5-1.8,1.4-2
	c0.1,0,0.3,0,0.4,0h5c2.1-0.2,3.9,1.4,4.1,3.5c0,0.1,0,0.3,0,0.5c0,1.1-0.4,2.2-1.2,3c-0.6,0.5-1.3,0.8-2.1,0.9
	c0.5,0.3,0.9,0.7,1.2,1.2l2.2,3.6c0.1,0.2,0.2,0.5,0.3,0.7c0,0.5-0.5,1-1,1c0,0,0,0,0,0c-0.4,0-0.8-0.2-1-0.6l-1.7-2.9
	c-0.9-1.5-1.7-2.9-2.9-2.9h-2.6v5.5V213z M50.8,205.8c1.1,0.2,2.1-0.4,2.4-1.5c0-0.1,0-0.3,0-0.4c0.2-1.1-0.6-2.1-1.7-2.2
	c-0.2,0-0.4,0-0.6,0h-3.9c-0.4,0-0.8,0-0.8,0.7v3.3h4.5V205.8z"/>
<path class="st2" d="M59.6,209.2c-0.2,1.5,0.8,2.8,2.3,3.1c0.1,0,0.1,0,0.2,0c0.9,0,1.7-0.6,2.1-1.4c0.2-0.3,0.5-0.5,0.8-0.5
	c0.5,0,0.8,0.4,0.8,0.9c0,0,0,0,0,0c-0.4,1.7-1.9,2.8-3.6,2.7c-1.5,0-4.4-0.7-4.4-5.5c-0.2-1.5,0.3-3.1,1.3-4.3
	c0.7-0.8,1.8-1.3,2.9-1.3c2.3,0.1,4,2,4,4.2c0,0.1,0,0.2,0,0.3c0,1-0.3,1.6-1.3,1.6L59.6,209.2L59.6,209.2z M63.5,207.3
	c0.4,0,0.4-0.1,0.4-0.3c0.1-1.2-0.8-2.2-2-2.2c0,0,0,0,0,0c-1.3,0.1-2.3,1.3-2.2,2.6L63.5,207.3L63.5,207.3z"/>
<path class="st2" d="M68.8,204.7c0-0.8,0-1.6,0.8-1.6c0.6,0.1,1.1,0.7,1,1.3c0,0,0,0,0,0.1c0.6-0.9,1.7-1.5,2.9-1.4
	c2.9,0,4.3,2.6,4.3,5.5s-1.4,5.5-4.1,5.5c-1.1,0-2.2-0.4-2.9-1.2v2.3c0,0.5-0.4,0.9-0.9,1c0,0,0,0-0.1,0c-0.5,0-1-0.4-1-0.9
	C68.8,215.1,68.8,204.7,68.8,204.7z M70.6,209.6c0.1,1.4,1.3,2.5,2.7,2.5c2.3,0,2.5-2.5,2.5-3.5s-0.2-3.6-2.5-3.6
	c-1.4,0-2.6,1.1-2.6,2.5L70.6,209.6L70.6,209.6z"/>
<path class="st2" d="M89.7,208.5c0,2.5-1.1,5.5-4.7,5.5c-3.5,0-4.7-2.9-4.7-5.5c0-2.5,1.1-5.5,4.7-5.5
	C88.6,203.1,89.7,206,89.7,208.5z M82.2,208.5c-0.3,1.6,0.8,3.2,2.4,3.5c0.1,0,0.2,0,0.3,0c2.5,0,2.7-2.5,2.7-3.4
	c0-1.4-0.4-3.6-2.7-3.6S82.2,207,82.2,208.5L82.2,208.5z"/>
<path class="st2" d="M91.9,211.2c0-0.5,0.4-0.9,0.8-0.9c0,0,0,0,0.1,0c0.5,0,0.9,0.3,1,0.7c0.6,0.8,1.6,1.2,2.6,1.2
	c0.9,0.1,1.7-0.5,1.8-1.3c0-0.1,0-0.1,0-0.2c0-0.9-0.9-1.2-2.1-1.5c-3.1-0.7-3.8-1.8-3.8-3.1c0.1-1.8,1.7-3.2,3.5-3.1
	c0,0,0.1,0,0.1,0c1.8,0,3.9,1.1,3.9,2.1c0,0.5-0.4,0.9-0.8,0.9c0,0,0,0,0,0c-0.4,0-0.8-0.3-1.1-0.6c-0.5-0.4-1.2-0.6-1.8-0.6
	c-0.8-0.2-1.6,0.4-1.8,1.2c0,0,0,0,0,0.1c0,0.8,0.4,0.9,2.9,1.6c1.6,0.1,2.8,1.4,2.9,3c-0.2,2-1.9,3.5-3.9,3.3c0,0,0,0,0,0
	C94.2,214.1,92.5,213,91.9,211.2z"/>
<path class="st2" d="M105.9,200.7c0,0.7-0.6,1.3-1.3,1.3c-0.7,0-1.3-0.6-1.3-1.3s0.6-1.3,1.3-1.3
	C105.3,199.4,105.9,199.9,105.9,200.7C105.9,200.7,105.9,200.7,105.9,200.7z M105.5,213c0,0.5-0.4,1-1,1c-0.5,0-0.9-0.5-0.9-1v-9
	c0-0.5,0.4-1,1-1c0.5,0,0.9,0.5,0.9,1V213L105.5,213z"/>
<path class="st2" d="M109.4,205.2c-0.5,0-0.9-0.4-0.8-0.9c0,0,0,0,0,0c0-0.5,0.4-0.9,0.8-0.9c0.1,0,0.1,0,0.2,0h1v-2
	c0-0.5,0.4-0.9,0.9-0.9c0,0,0,0,0,0c0.5,0,0.9,0.4,0.9,0.9c0,0,0,0,0,0.1v1.9h2.3c0.5,0,0.9,0.4,0.8,0.9c0,0,0,0,0,0
	c0,0.5-0.4,0.8-0.8,0.9h-2.3v6c-0.1,0.3,0.1,0.7,0.4,0.7c0,0,0.1,0,0.1,0c0.5-0.1,0.9-0.5,1.1-1c0.2-0.2,0.4-0.3,0.7-0.3
	c0.5,0,0.9,0.5,0.9,1c-0.2,1.4-1.3,2.4-2.7,2.4c-1.3,0.1-2.3-0.9-2.4-2.1c0-0.2,0-0.4,0-0.6v-6.1H109.4L109.4,205.2z"/>
<path class="st2" d="M127,208.5c0,2.5-1.1,5.5-4.7,5.5c-3.5,0-4.7-2.9-4.7-5.5c0-2.5,1.1-5.5,4.7-5.5C125.9,203.1,127,206,127,208.5
	z M119.5,208.5c-0.3,1.6,0.8,3.2,2.4,3.5c0.1,0,0.2,0,0.3,0c2.5,0,2.7-2.5,2.7-3.4c0-1.4-0.4-3.6-2.7-3.6
	C119.9,205,119.5,207,119.5,208.5z"/>
<path class="st2" d="M131.9,213.1c0,0.5-0.4,0.9-0.9,0.9c0,0-0.1,0-0.1,0c-0.5,0-0.9-0.4-0.9-0.9c0,0,0,0,0,0v-8.6
	c-0.2-0.6,0.2-1.2,0.8-1.4c0.1,0,0.1,0,0.2,0c0.9,0,0.9,0.8,0.9,1.4v0.4c0.6-1.1,1.7-1.8,2.9-1.8c0.3,0,1.8,0.2,1.8,1.1
	c0,0.5-0.3,0.9-0.8,0.9c0,0,0,0,0,0c-0.2,0-1-0.2-1.1-0.2c-1.5,0-2.9,2.6-2.9,3.1L131.9,213.1L131.9,213.1z"/>
<path class="st2" d="M138.9,204.7c-0.1-0.2-0.2-0.4-0.2-0.6c0-0.5,0.4-1,1-1c0.4,0,0.8,0.2,0.9,0.6l2.7,5.5c0.3,0.7,0.4,0.8,0.7,0.9
	l2.8-6.4c0.1-0.4,0.5-0.7,0.9-0.7c0.5,0,1,0.4,1,0.9c0,0.1,0,0.1,0,0.2c0,0.2,0,0.3-0.1,0.5l-4,9.1c-0.4,1.5-1.8,2.4-3.4,2.3
	c-1.6,0-2.5-0.5-2.5-1.4c0-0.5,0.4-1,0.9-1c0,0,0,0,0,0c0.2,0,0.4,0.1,0.6,0.1c0.4,0.1,0.7,0.2,1.1,0.2c0.7,0,1.2-0.2,1.8-1.9
	c-0.5-0.2-1-0.6-1.1-1.2L138.9,204.7z"/>
<path class="st2" d="M170.2,213.7c-0.9,0.1-1.7-0.6-1.7-1.5c0-0.2,0-0.3,0-0.5v-10.2c-0.1-0.9,0.5-1.7,1.4-1.8c0.1,0,0.2,0,0.2,0
	h3.4c3.6,0,5.9,3,5.9,7c0,3.6-1.9,7-5.6,7L170.2,213.7L170.2,213.7z M170.5,211c0,0.3,0.2,0.6,0.4,0.6c0,0,0.1,0,0.1,0h2.3
	c3,0,3.9-2.7,3.9-4.9s-0.7-4.9-4.4-4.9h-1.6c-0.4-0.1-0.8,0.2-0.9,0.6c0,0.1,0,0.2,0,0.3L170.5,211L170.5,211z"/>
<path class="st2" d="M189,206.6c0-0.4-0.2-0.8-0.4-1.1c-0.5-0.5-1.2-0.7-1.8-0.6c-0.9-0.1-1.8,0.2-2.5,0.7c-0.2,0.2-0.5,0.4-0.9,0.4
	c-0.5,0-0.9-0.5-0.9-1c0,0,0,0,0,0c0-1,1.8-1.9,4-1.9c1.3-0.1,2.6,0.3,3.6,1.1c0.5,0.6,0.8,1.3,0.8,2.1v4.9c0,0.4,0.1,0.8,0.2,1.2
	c0.1,0.3,0.2,0.6,0.3,0.9c0,0.5-0.5,0.8-0.9,0.8c0,0,0,0,0,0c-0.6,0-1.1-0.5-1.1-1.2c0,0,0-0.1,0-0.1c-0.9,0.9-2.1,1.3-3.3,1.2
	c-3.6,0-4.1-2.5-4.1-3.5c0-1,0.6-3.6,4.6-3.6c0.9,0,1.7,0.1,2.5,0.5L189,206.6L189,206.6z M189,209.4c0,0-0.3-0.8-2.3-0.8
	c-0.9,0-2.9,0-2.9,1.8c0.1,1.1,1,1.8,2.1,1.7c0,0,0.1,0,0.1,0c1.3,0.2,2.5-0.6,2.9-1.8V209.4z"/>
<path class="st2" d="M194.3,205.2c-0.5,0-0.9-0.4-0.8-0.9c0,0,0,0,0,0c0-0.5,0.4-0.9,0.8-0.9c0.1,0,0.1,0,0.2,0h1v-2
	c0-0.5,0.4-0.9,0.9-0.9c0,0,0,0,0,0c0.5,0,0.9,0.4,0.9,0.9c0,0,0,0,0,0.1v1.9h2.3c0.5,0,0.9,0.4,0.8,0.9c0,0,0,0,0,0
	c0,0.5-0.4,0.8-0.8,0.9h-2.3v6c-0.1,0.3,0.1,0.7,0.4,0.7c0,0,0.1,0,0.1,0c0.5-0.1,0.9-0.5,1.1-1c0.2-0.2,0.4-0.3,0.7-0.3
	c0.5,0,0.9,0.5,0.9,1c-0.2,1.4-1.3,2.4-2.7,2.4c-1.3,0.1-2.3-0.9-2.4-2.1c0-0.2,0-0.4,0-0.6v-6.1H194.3L194.3,205.2z"/>
<path class="st2" d="M209.5,206.6c0-0.4-0.2-0.8-0.4-1.1c-0.5-0.5-1.2-0.7-1.8-0.6c-0.9-0.1-1.8,0.2-2.5,0.7
	c-0.2,0.2-0.5,0.4-0.9,0.4c-0.5,0-0.9-0.5-0.9-1c0,0,0,0,0,0c0-1,1.8-1.9,4-1.9c1.3-0.1,2.6,0.3,3.6,1.1c0.5,0.6,0.8,1.3,0.8,2.1
	v4.9c0,0.4,0.1,0.8,0.2,1.2c0.1,0.3,0.2,0.6,0.3,0.9c0,0.5-0.5,0.8-0.9,0.8c0,0,0,0,0,0c-0.6,0-1.1-0.5-1.1-1.2c0,0,0-0.1,0-0.1
	c-0.9,0.9-2.1,1.3-3.3,1.2c-3.6,0-4.1-2.5-4.1-3.5c0-1,0.6-3.6,4.6-3.6c0.9,0,1.7,0.1,2.5,0.5L209.5,206.6L209.5,206.6z
	 M209.5,209.4c0,0-0.3-0.8-2.3-0.8c-0.9,0-2.9,0-2.9,1.8c0.1,1.1,1,1.8,2.1,1.7c0,0,0.1,0,0.1,0c1.3,0.2,2.5-0.6,2.9-1.8V209.4z"/>
<path class="st2" d="M214.7,200.3c-0.1-0.5,0.1-1,0.6-1.2c0.5-0.1,1,0.1,1.2,0.6c0,0.2,0,0.3,0,0.5v3.9c0.8-0.8,1.8-1.2,2.9-1.2
	c2.8,0,4.1,2.5,4.1,5.5s-1.4,5.5-4.3,5.5c-1.1,0.1-2.2-0.4-2.9-1.4c0.1,0.6-0.3,1.2-0.9,1.4c0,0,0,0,0,0c-0.8,0-0.8-0.8-0.8-1.6
	L214.7,200.3L214.7,200.3z M216.6,209.5c0,1.4,1.2,2.5,2.6,2.5c2.4,0,2.5-2.6,2.5-3.6c0-1.1-0.2-3.5-2.5-3.5c-1.4,0-2.6,1.1-2.6,2.5
	V209.5L216.6,209.5z"/>
<path class="st2" d="M233.3,206.6c0-0.4-0.2-0.8-0.4-1.1c-0.5-0.5-1.2-0.7-1.8-0.6c-0.9-0.1-1.8,0.2-2.5,0.7
	c-0.2,0.2-0.5,0.4-0.9,0.4c-0.5,0-0.9-0.5-0.9-1c0,0,0,0,0,0c0-1,1.8-1.9,4-1.9c1.3-0.1,2.6,0.3,3.6,1.1c0.5,0.6,0.8,1.3,0.8,2.1
	v4.9c0,0.4,0.1,0.8,0.2,1.2c0.1,0.3,0.2,0.6,0.3,0.9c0,0.5-0.5,0.8-0.9,0.8c0,0,0,0,0,0c-0.6,0-1.1-0.5-1.1-1.2c0,0,0-0.1,0-0.1
	c-0.9,0.9-2.1,1.3-3.3,1.2c-3.6,0-4.1-2.5-4.1-3.5c0-1,0.6-3.6,4.6-3.6c0.9,0,1.7,0.1,2.5,0.5L233.3,206.6L233.3,206.6z
	 M233.3,209.4c0,0-0.3-0.8-2.3-0.8c-0.9,0-2.9,0-2.9,1.8c0.1,1.1,1,1.8,2.1,1.7c0,0,0.1,0,0.1,0c1.3,0.2,2.5-0.6,2.9-1.8V209.4z"/>
<path class="st2" d="M237.8,211.2c0-0.5,0.4-0.9,0.8-0.9c0,0,0,0,0.1,0c0.5,0,0.9,0.3,1,0.7c0.6,0.8,1.6,1.2,2.6,1.2
	c0.9,0.1,1.7-0.5,1.8-1.3c0-0.1,0-0.1,0-0.2c0-0.9-0.9-1.2-2.1-1.5c-3.1-0.7-3.8-1.8-3.8-3.1c0.1-1.8,1.7-3.2,3.5-3.1
	c0,0,0.1,0,0.1,0c1.8,0,3.9,1.1,3.9,2.1c0,0.5-0.4,0.9-0.8,0.9c0,0,0,0,0,0c-0.4,0-0.8-0.3-1.1-0.6c-0.5-0.4-1.2-0.6-1.8-0.6
	c-0.8-0.2-1.6,0.4-1.8,1.2c0,0,0,0,0,0.1c0,0.8,0.4,0.9,2.9,1.6c1.6,0,2.9,1.4,3,3c-0.2,2-1.9,3.5-3.9,3.3c0,0,0,0,0,0
	C240.3,214.1,238.5,213,237.8,211.2z"/>
<path class="st2" d="M250.5,209.2c-0.2,1.5,0.8,2.8,2.3,3.1c0.1,0,0.1,0,0.2,0c0.9,0,1.7-0.6,2.1-1.4c0.2-0.3,0.5-0.5,0.8-0.5
	c0.5,0,0.8,0.4,0.8,0.9c0,0,0,0,0,0c-0.4,1.7-1.9,2.8-3.6,2.7c-1.5,0-4.4-0.7-4.4-5.5c-0.2-1.5,0.3-3.1,1.3-4.3
	c0.7-0.8,1.8-1.3,2.9-1.3c2.3,0.1,4,2,4,4.2c0,0.1,0,0.2,0,0.3c0,1-0.3,1.6-1.3,1.6L250.5,209.2L250.5,209.2z M254.4,207.3
	c0.4,0,0.4-0.1,0.4-0.3c0.1-1.2-0.8-2.2-2-2.2c0,0,0,0,0,0c-1.3,0.1-2.3,1.3-2.2,2.6L254.4,207.3L254.4,207.3z"/>
<path class="st2" d="M46.3,213c0,0.5-0.4,1-0.9,1c0,0-0.1,0-0.1,0c-0.5,0-1-0.4-1-0.9c0,0,0,0,0-0.1v-11.4c-0.1-0.9,0.5-1.8,1.4-2
	c0.1,0,0.3,0,0.4,0h5c2.1-0.2,3.9,1.4,4.1,3.5c0,0.1,0,0.3,0,0.5c0,1.1-0.4,2.2-1.2,3c-0.6,0.5-1.3,0.8-2.1,0.9
	c0.5,0.3,0.9,0.7,1.2,1.2l2.2,3.6c0.1,0.2,0.2,0.5,0.3,0.7c0,0.5-0.5,1-1,1c0,0,0,0,0,0c-0.4,0-0.8-0.2-1-0.6l-1.7-2.9
	c-0.9-1.5-1.7-2.9-2.9-2.9h-2.6v5.5V213z M50.8,205.8c1.1,0.2,2.1-0.4,2.4-1.5c0-0.1,0-0.3,0-0.4c0.2-1.1-0.6-2.1-1.7-2.2
	c-0.2,0-0.4,0-0.6,0h-3.9c-0.4,0-0.8,0-0.8,0.7v3.3h4.5V205.8z"/>
<path class="st2" d="M59.6,209.2c-0.2,1.5,0.8,2.8,2.3,3.1c0.1,0,0.1,0,0.2,0c0.9,0,1.7-0.6,2.1-1.4c0.2-0.3,0.5-0.5,0.8-0.5
	c0.5,0,0.8,0.4,0.8,0.9c0,0,0,0,0,0c-0.4,1.7-1.9,2.8-3.6,2.7c-1.5,0-4.4-0.7-4.4-5.5c-0.2-1.5,0.3-3.1,1.3-4.3
	c0.7-0.8,1.8-1.3,2.9-1.3c2.3,0.1,4,2,4,4.2c0,0.1,0,0.2,0,0.3c0,1-0.3,1.6-1.3,1.6L59.6,209.2L59.6,209.2z M63.5,207.3
	c0.4,0,0.4-0.1,0.4-0.3c0.1-1.2-0.8-2.2-2-2.2c0,0,0,0,0,0c-1.3,0.1-2.3,1.3-2.2,2.6L63.5,207.3L63.5,207.3z"/>
<path class="st2" d="M68.8,204.7c0-0.8,0-1.6,0.8-1.6c0.6,0.1,1.1,0.7,1,1.3c0,0,0,0,0,0.1c0.6-0.9,1.7-1.5,2.9-1.4
	c2.9,0,4.3,2.6,4.3,5.5s-1.4,5.5-4.1,5.5c-1.1,0-2.2-0.4-2.9-1.2v2.3c0,0.5-0.4,0.9-0.9,1c0,0,0,0-0.1,0c-0.5,0-1-0.4-1-0.9
	C68.8,215.1,68.8,204.7,68.8,204.7z M70.6,209.6c0.1,1.4,1.3,2.5,2.7,2.5c2.3,0,2.5-2.5,2.5-3.5s-0.2-3.6-2.5-3.6
	c-1.4,0-2.6,1.1-2.6,2.5L70.6,209.6L70.6,209.6z"/>
<path class="st2" d="M89.7,208.5c0,2.5-1.1,5.5-4.7,5.5c-3.5,0-4.7-2.9-4.7-5.5c0-2.5,1.1-5.5,4.7-5.5
	C88.6,203.1,89.7,206,89.7,208.5z M82.2,208.5c-0.3,1.6,0.8,3.2,2.4,3.5c0.1,0,0.2,0,0.3,0c2.5,0,2.7-2.5,2.7-3.4
	c0-1.4-0.4-3.6-2.7-3.6S82.2,207,82.2,208.5L82.2,208.5z"/>
<path class="st2" d="M91.9,211.2c0-0.5,0.4-0.9,0.8-0.9c0,0,0,0,0.1,0c0.5,0,0.9,0.3,1,0.7c0.6,0.8,1.6,1.2,2.6,1.2
	c0.9,0.1,1.7-0.5,1.8-1.3c0-0.1,0-0.1,0-0.2c0-0.9-0.9-1.2-2.1-1.5c-3.1-0.7-3.8-1.8-3.8-3.1c0.1-1.8,1.7-3.2,3.5-3.1
	c0,0,0.1,0,0.1,0c1.8,0,3.9,1.1,3.9,2.1c0,0.5-0.4,0.9-0.8,0.9c0,0,0,0,0,0c-0.4,0-0.8-0.3-1.1-0.6c-0.5-0.4-1.2-0.6-1.8-0.6
	c-0.8-0.2-1.6,0.4-1.8,1.2c0,0,0,0,0,0.1c0,0.8,0.4,0.9,2.9,1.6c1.6,0.1,2.8,1.4,2.9,3c-0.2,2-1.9,3.5-3.9,3.3c0,0,0,0,0,0
	C94.2,214.1,92.5,213,91.9,211.2z"/>
<path class="st2" d="M105.9,200.7c0,0.7-0.6,1.3-1.3,1.3c-0.7,0-1.3-0.6-1.3-1.3s0.6-1.3,1.3-1.3
	C105.3,199.4,105.9,199.9,105.9,200.7C105.9,200.7,105.9,200.7,105.9,200.7z M105.5,213c0,0.5-0.4,1-1,1c-0.5,0-0.9-0.5-0.9-1v-9
	c0-0.5,0.4-1,1-1c0.5,0,0.9,0.5,0.9,1V213L105.5,213z"/>
<path class="st2" d="M109.4,205.2c-0.5,0-0.9-0.4-0.8-0.9c0,0,0,0,0,0c0-0.5,0.4-0.9,0.8-0.9c0.1,0,0.1,0,0.2,0h1v-2
	c0-0.5,0.4-0.9,0.9-0.9c0,0,0,0,0,0c0.5,0,0.9,0.4,0.9,0.9c0,0,0,0,0,0.1v1.9h2.3c0.5,0,0.9,0.4,0.8,0.9c0,0,0,0,0,0
	c0,0.5-0.4,0.8-0.8,0.9h-2.3v6c-0.1,0.3,0.1,0.7,0.4,0.7c0,0,0.1,0,0.1,0c0.5-0.1,0.9-0.5,1.1-1c0.2-0.2,0.4-0.3,0.7-0.3
	c0.5,0,0.9,0.5,0.9,1c-0.2,1.4-1.3,2.4-2.7,2.4c-1.3,0.1-2.3-0.9-2.4-2.1c0-0.2,0-0.4,0-0.6v-6.1H109.4L109.4,205.2z"/>
<path class="st2" d="M127,208.5c0,2.5-1.1,5.5-4.7,5.5c-3.5,0-4.7-2.9-4.7-5.5c0-2.5,1.1-5.5,4.7-5.5C125.9,203.1,127,206,127,208.5
	z M119.5,208.5c-0.3,1.6,0.8,3.2,2.4,3.5c0.1,0,0.2,0,0.3,0c2.5,0,2.7-2.5,2.7-3.4c0-1.4-0.4-3.6-2.7-3.6
	C119.9,205,119.5,207,119.5,208.5z"/>
<path class="st2" d="M131.9,213.1c0,0.5-0.4,0.9-0.9,0.9c0,0-0.1,0-0.1,0c-0.5,0-0.9-0.4-0.9-0.9c0,0,0,0,0,0v-8.6
	c-0.2-0.6,0.2-1.2,0.8-1.4c0.1,0,0.1,0,0.2,0c0.9,0,0.9,0.8,0.9,1.4v0.4c0.6-1.1,1.7-1.8,2.9-1.8c0.3,0,1.8,0.2,1.8,1.1
	c0,0.5-0.3,0.9-0.8,0.9c0,0,0,0,0,0c-0.2,0-1-0.2-1.1-0.2c-1.5,0-2.9,2.6-2.9,3.1L131.9,213.1L131.9,213.1z"/>
<path class="st2" d="M138.9,204.7c-0.1-0.2-0.2-0.4-0.2-0.6c0-0.5,0.4-1,1-1c0.4,0,0.8,0.2,0.9,0.6l2.7,5.5c0.3,0.7,0.4,0.8,0.7,0.9
	l2.8-6.4c0.1-0.4,0.5-0.7,0.9-0.7c0.5,0,1,0.4,1,0.9c0,0.1,0,0.1,0,0.2c0,0.2,0,0.3-0.1,0.5l-4,9.1c-0.4,1.5-1.8,2.4-3.4,2.3
	c-1.6,0-2.5-0.5-2.5-1.4c0-0.5,0.4-1,0.9-1c0,0,0,0,0,0c0.2,0,0.4,0.1,0.6,0.1c0.4,0.1,0.7,0.2,1.1,0.2c0.7,0,1.2-0.2,1.8-1.9
	c-0.5-0.2-1-0.6-1.1-1.2L138.9,204.7z"/>
<path class="st2" d="M170.2,213.7c-0.9,0.1-1.7-0.6-1.7-1.5c0-0.2,0-0.3,0-0.5v-10.2c-0.1-0.9,0.5-1.7,1.4-1.8c0.1,0,0.2,0,0.2,0
	h3.4c3.6,0,5.9,3,5.9,7c0,3.6-1.9,7-5.6,7L170.2,213.7L170.2,213.7z M170.5,211c0,0.3,0.2,0.6,0.4,0.6c0,0,0.1,0,0.1,0h2.3
	c3,0,3.9-2.7,3.9-4.9s-0.7-4.9-4.4-4.9h-1.6c-0.4-0.1-0.8,0.2-0.9,0.6c0,0.1,0,0.2,0,0.3L170.5,211L170.5,211z"/>
<path class="st2" d="M189,206.6c0-0.4-0.2-0.8-0.4-1.1c-0.5-0.5-1.2-0.7-1.8-0.6c-0.9-0.1-1.8,0.2-2.5,0.7c-0.2,0.2-0.5,0.4-0.9,0.4
	c-0.5,0-0.9-0.5-0.9-1c0,0,0,0,0,0c0-1,1.8-1.9,4-1.9c1.3-0.1,2.6,0.3,3.6,1.1c0.5,0.6,0.8,1.3,0.8,2.1v4.9c0,0.4,0.1,0.8,0.2,1.2
	c0.1,0.3,0.2,0.6,0.3,0.9c0,0.5-0.5,0.8-0.9,0.8c0,0,0,0,0,0c-0.6,0-1.1-0.5-1.1-1.2c0,0,0-0.1,0-0.1c-0.9,0.9-2.1,1.3-3.3,1.2
	c-3.6,0-4.1-2.5-4.1-3.5c0-1,0.6-3.6,4.6-3.6c0.9,0,1.7,0.1,2.5,0.5L189,206.6L189,206.6z M189,209.4c0,0-0.3-0.8-2.3-0.8
	c-0.9,0-2.9,0-2.9,1.8c0.1,1.1,1,1.8,2.1,1.7c0,0,0.1,0,0.1,0c1.3,0.2,2.5-0.6,2.9-1.8V209.4z"/>
<path class="st2" d="M194.3,205.2c-0.5,0-0.9-0.4-0.8-0.9c0,0,0,0,0,0c0-0.5,0.4-0.9,0.8-0.9c0.1,0,0.1,0,0.2,0h1v-2
	c0-0.5,0.4-0.9,0.9-0.9c0,0,0,0,0,0c0.5,0,0.9,0.4,0.9,0.9c0,0,0,0,0,0.1v1.9h2.3c0.5,0,0.9,0.4,0.8,0.9c0,0,0,0,0,0
	c0,0.5-0.4,0.8-0.8,0.9h-2.3v6c-0.1,0.3,0.1,0.7,0.4,0.7c0,0,0.1,0,0.1,0c0.5-0.1,0.9-0.5,1.1-1c0.2-0.2,0.4-0.3,0.7-0.3
	c0.5,0,0.9,0.5,0.9,1c-0.2,1.4-1.3,2.4-2.7,2.4c-1.3,0.1-2.3-0.9-2.4-2.1c0-0.2,0-0.4,0-0.6v-6.1H194.3L194.3,205.2z"/>
<path class="st2" d="M209.5,206.6c0-0.4-0.2-0.8-0.4-1.1c-0.5-0.5-1.2-0.7-1.8-0.6c-0.9-0.1-1.8,0.2-2.5,0.7
	c-0.2,0.2-0.5,0.4-0.9,0.4c-0.5,0-0.9-0.5-0.9-1c0,0,0,0,0,0c0-1,1.8-1.9,4-1.9c1.3-0.1,2.6,0.3,3.6,1.1c0.5,0.6,0.8,1.3,0.8,2.1
	v4.9c0,0.4,0.1,0.8,0.2,1.2c0.1,0.3,0.2,0.6,0.3,0.9c0,0.5-0.5,0.8-0.9,0.8c0,0,0,0,0,0c-0.6,0-1.1-0.5-1.1-1.2c0,0,0-0.1,0-0.1
	c-0.9,0.9-2.1,1.3-3.3,1.2c-3.6,0-4.1-2.5-4.1-3.5c0-1,0.6-3.6,4.6-3.6c0.9,0,1.7,0.1,2.5,0.5L209.5,206.6L209.5,206.6z
	 M209.5,209.4c0,0-0.3-0.8-2.3-0.8c-0.9,0-2.9,0-2.9,1.8c0.1,1.1,1,1.8,2.1,1.7c0,0,0.1,0,0.1,0c1.3,0.2,2.5-0.6,2.9-1.8V209.4z"/>
<path class="st2" d="M214.7,200.3c-0.1-0.5,0.1-1,0.6-1.2c0.5-0.1,1,0.1,1.2,0.6c0,0.2,0,0.3,0,0.5v3.9c0.8-0.8,1.8-1.2,2.9-1.2
	c2.8,0,4.1,2.5,4.1,5.5s-1.4,5.5-4.3,5.5c-1.1,0.1-2.2-0.4-2.9-1.4c0.1,0.6-0.3,1.2-0.9,1.4c0,0,0,0,0,0c-0.8,0-0.8-0.8-0.8-1.6
	L214.7,200.3L214.7,200.3z M216.6,209.5c0,1.4,1.2,2.5,2.6,2.5c2.4,0,2.5-2.6,2.5-3.6c0-1.1-0.2-3.5-2.5-3.5c-1.4,0-2.6,1.1-2.6,2.5
	V209.5L216.6,209.5z"/>
<path class="st2" d="M233.3,206.6c0-0.4-0.2-0.8-0.4-1.1c-0.5-0.5-1.2-0.7-1.8-0.6c-0.9-0.1-1.8,0.2-2.5,0.7
	c-0.2,0.2-0.5,0.4-0.9,0.4c-0.5,0-0.9-0.5-0.9-1c0,0,0,0,0,0c0-1,1.8-1.9,4-1.9c1.3-0.1,2.6,0.3,3.6,1.1c0.5,0.6,0.8,1.3,0.8,2.1
	v4.9c0,0.4,0.1,0.8,0.2,1.2c0.1,0.3,0.2,0.6,0.3,0.9c0,0.5-0.5,0.8-0.9,0.8c0,0,0,0,0,0c-0.6,0-1.1-0.5-1.1-1.2c0,0,0-0.1,0-0.1
	c-0.9,0.9-2.1,1.3-3.3,1.2c-3.6,0-4.1-2.5-4.1-3.5c0-1,0.6-3.6,4.6-3.6c0.9,0,1.7,0.1,2.5,0.5L233.3,206.6L233.3,206.6z
	 M233.3,209.4c0,0-0.3-0.8-2.3-0.8c-0.9,0-2.9,0-2.9,1.8c0.1,1.1,1,1.8,2.1,1.7c0,0,0.1,0,0.1,0c1.3,0.2,2.5-0.6,2.9-1.8V209.4z"/>
<path class="st2" d="M237.8,211.2c0-0.5,0.4-0.9,0.8-0.9c0,0,0,0,0.1,0c0.5,0,0.9,0.3,1,0.7c0.6,0.8,1.6,1.2,2.6,1.2
	c0.9,0.1,1.7-0.5,1.8-1.3c0-0.1,0-0.1,0-0.2c0-0.9-0.9-1.2-2.1-1.5c-3.1-0.7-3.8-1.8-3.8-3.1c0.1-1.8,1.7-3.2,3.5-3.1
	c0,0,0.1,0,0.1,0c1.8,0,3.9,1.1,3.9,2.1c0,0.5-0.4,0.9-0.8,0.9c0,0,0,0,0,0c-0.4,0-0.8-0.3-1.1-0.6c-0.5-0.4-1.2-0.6-1.8-0.6
	c-0.8-0.2-1.6,0.4-1.8,1.2c0,0,0,0,0,0.1c0,0.8,0.4,0.9,2.9,1.6c1.6,0,2.9,1.4,3,3c-0.2,2-1.9,3.5-3.9,3.3c0,0,0,0,0,0
	C240.3,214.1,238.5,213,237.8,211.2z"/>
<path class="st2" d="M250.5,209.2c-0.2,1.5,0.8,2.8,2.3,3.1c0.1,0,0.1,0,0.2,0c0.9,0,1.7-0.6,2.1-1.4c0.2-0.3,0.5-0.5,0.8-0.5
	c0.5,0,0.8,0.4,0.8,0.9c0,0,0,0,0,0c-0.4,1.7-1.9,2.8-3.6,2.7c-1.5,0-4.4-0.7-4.4-5.5c-0.2-1.5,0.3-3.1,1.3-4.3
	c0.7-0.8,1.8-1.3,2.9-1.3c2.3,0.1,4,2,4,4.2c0,0.1,0,0.2,0,0.3c0,1-0.3,1.6-1.3,1.6L250.5,209.2L250.5,209.2z M254.4,207.3
	c0.4,0,0.4-0.1,0.4-0.3c0.1-1.2-0.8-2.2-2-2.2c0,0,0,0,0,0c-1.3,0.1-2.3,1.3-2.2,2.6L254.4,207.3L254.4,207.3z"/>
<polygon class="st2" points="150.8,219.5 150.2,219.5 163.2,195.1 163.8,195.1 "/>
<path class="st3" d="M46.3,209.4c0,0.5-0.4,1-0.9,1c0,0-0.1,0-0.1,0c-0.5,0-1-0.4-1-0.9c0,0,0,0,0-0.1V198c-0.1-0.9,0.5-1.8,1.4-2
	c0.1,0,0.3,0,0.4,0h5c2.1-0.2,3.9,1.4,4.1,3.5c0,0.1,0,0.3,0,0.5c0,1.1-0.4,2.2-1.2,3c-0.6,0.5-1.3,0.8-2.1,0.9
	c0.5,0.3,0.9,0.7,1.2,1.2l2.2,3.6c0.1,0.2,0.2,0.5,0.3,0.7c0,0.5-0.5,1-1,1c0,0,0,0,0,0c-0.4,0-0.8-0.2-1-0.6l-1.7-2.9
	c-0.9-1.5-1.7-2.9-2.9-2.9h-2.6v5.5V209.4z M50.8,202.1c1.1,0.2,2.1-0.4,2.4-1.5c0-0.1,0-0.3,0-0.4c0.2-1.1-0.6-2.1-1.7-2.2
	c-0.2,0-0.4,0-0.6,0h-3.9c-0.4,0-0.8,0-0.8,0.7v3.3h4.5V202.1z"/>
<path class="st3" d="M59.6,205.5c-0.2,1.5,0.8,2.8,2.3,3.1c0.1,0,0.1,0,0.2,0c0.9,0,1.7-0.6,2.1-1.4c0.2-0.3,0.5-0.5,0.8-0.5
	c0.5,0,0.8,0.4,0.8,0.9c0,0,0,0,0,0c-0.4,1.7-1.9,2.8-3.6,2.7c-1.5,0-4.4-0.7-4.4-5.5c-0.2-1.5,0.3-3.1,1.3-4.3
	c0.7-0.8,1.8-1.3,2.9-1.3c2.3,0.1,4,2,4,4.2c0,0.1,0,0.2,0,0.3c0,1-0.3,1.6-1.3,1.6L59.6,205.5L59.6,205.5z M63.5,203.7
	c0.4,0,0.4-0.1,0.4-0.3c0.1-1.2-0.8-2.2-2-2.2c0,0,0,0,0,0c-1.3,0.1-2.3,1.3-2.2,2.6L63.5,203.7L63.5,203.7z"/>
<path class="st3" d="M68.8,201c0-0.8,0-1.6,0.8-1.6c0.6,0.1,1.1,0.7,1,1.3c0,0,0,0,0,0.1c0.6-0.9,1.7-1.5,2.9-1.4
	c2.9,0,4.3,2.6,4.3,5.5s-1.4,5.5-4.1,5.5c-1.1,0-2.2-0.4-2.9-1.2v2.3c0,0.5-0.4,0.9-0.9,1c0,0,0,0-0.1,0c-0.5,0-1-0.4-1-0.9
	C68.8,211.4,68.8,201,68.8,201z M70.6,206c0.1,1.4,1.3,2.5,2.7,2.5c2.3,0,2.5-2.5,2.5-3.5s-0.2-3.6-2.5-3.6c-1.4,0-2.6,1.1-2.6,2.5
	L70.6,206L70.6,206z"/>
<path class="st3" d="M89.7,204.9c0,2.5-1.1,5.5-4.7,5.5c-3.5,0-4.7-2.9-4.7-5.5c0-2.5,1.1-5.5,4.7-5.5
	C88.6,199.4,89.7,202.4,89.7,204.9z M82.2,204.9c-0.3,1.6,0.8,3.2,2.4,3.5c0.1,0,0.2,0,0.3,0c2.5,0,2.7-2.5,2.7-3.4
	c0-1.4-0.4-3.6-2.7-3.6S82.2,203.4,82.2,204.9L82.2,204.9z"/>
<path class="st3" d="M91.9,207.5c0-0.5,0.4-0.9,0.8-0.9c0,0,0,0,0.1,0c0.5,0,0.9,0.3,1,0.7c0.6,0.8,1.6,1.2,2.6,1.2
	c0.9,0.1,1.7-0.5,1.8-1.3c0-0.1,0-0.1,0-0.2c0-0.9-0.9-1.2-2.1-1.5c-3.1-0.7-3.8-1.8-3.8-3.1c0.1-1.8,1.7-3.2,3.5-3.1
	c0,0,0.1,0,0.1,0c1.8,0,3.9,1.1,3.9,2.1c0,0.5-0.4,0.9-0.8,0.9c0,0,0,0,0,0c-0.4,0-0.8-0.3-1.1-0.6c-0.5-0.4-1.2-0.6-1.8-0.6
	c-0.8-0.2-1.6,0.4-1.8,1.2c0,0,0,0,0,0.1c0,0.8,0.4,0.9,2.9,1.6c1.6,0.1,2.8,1.4,2.9,3c-0.2,2-1.9,3.5-3.9,3.3c0,0,0,0,0,0
	C94.2,210.5,92.5,209.3,91.9,207.5z"/>
<path class="st3" d="M105.9,197.1c0,0.7-0.6,1.3-1.3,1.3c-0.7,0-1.3-0.6-1.3-1.3s0.6-1.3,1.3-1.3
	C105.3,195.7,105.9,196.3,105.9,197.1C105.9,197,105.9,197,105.9,197.1z M105.5,209.4c0,0.5-0.4,1-1,1c-0.5,0-0.9-0.5-0.9-1v-9
	c0-0.5,0.4-1,1-1c0.5,0,0.9,0.5,0.9,1V209.4L105.5,209.4z"/>
<path class="st3" d="M109.4,201.6c-0.5,0-0.9-0.4-0.8-0.9c0,0,0,0,0,0c0-0.5,0.4-0.9,0.8-0.9c0.1,0,0.1,0,0.2,0h1v-2
	c0-0.5,0.4-0.9,0.9-0.9c0,0,0,0,0,0c0.5,0,0.9,0.4,0.9,0.9c0,0,0,0,0,0.1v1.9h2.3c0.5,0,0.9,0.4,0.8,0.9c0,0,0,0,0,0
	c0,0.5-0.4,0.8-0.8,0.9h-2.3v6c-0.1,0.3,0.1,0.7,0.4,0.7c0,0,0.1,0,0.1,0c0.5-0.1,0.9-0.5,1.1-1c0.2-0.2,0.4-0.3,0.7-0.3
	c0.5,0,0.9,0.5,0.9,1c-0.2,1.4-1.3,2.4-2.7,2.4c-1.3,0.1-2.3-0.9-2.4-2.1c0-0.2,0-0.4,0-0.6v-6.1H109.4L109.4,201.6z"/>
<path class="st3" d="M127,204.9c0,2.5-1.1,5.5-4.7,5.5c-3.5,0-4.7-2.9-4.7-5.5c0-2.5,1.1-5.5,4.7-5.5
	C125.9,199.4,127,202.4,127,204.9z M119.5,204.9c-0.3,1.6,0.8,3.2,2.4,3.5c0.1,0,0.2,0,0.3,0c2.5,0,2.7-2.5,2.7-3.4
	c0-1.4-0.4-3.6-2.7-3.6C119.9,201.3,119.5,203.4,119.5,204.9z"/>
<path class="st3" d="M131.9,209.5c0,0.5-0.4,0.9-0.9,0.9c0,0-0.1,0-0.1,0c-0.5,0-0.9-0.4-0.9-0.9c0,0,0,0,0,0v-8.6
	c-0.2-0.6,0.2-1.2,0.8-1.4c0.1,0,0.1,0,0.2,0c0.9,0,0.9,0.8,0.9,1.4v0.4c0.6-1.1,1.7-1.8,2.9-1.8c0.3,0,1.8,0.2,1.8,1.1
	c0,0.5-0.3,0.9-0.8,0.9c0,0,0,0,0,0c-0.2,0-1-0.2-1.1-0.2c-1.5,0-2.9,2.6-2.9,3.1L131.9,209.5L131.9,209.5z"/>
<path class="st3" d="M138.9,201.1c-0.1-0.2-0.2-0.4-0.2-0.6c0-0.5,0.4-1,1-1c0.4,0,0.8,0.2,0.9,0.6l2.7,5.5c0.3,0.7,0.4,0.8,0.7,0.9
	l2.8-6.4c0.1-0.4,0.5-0.7,0.9-0.7c0.5,0,1,0.4,1,0.9c0,0.1,0,0.1,0,0.2c0,0.2,0,0.3-0.1,0.5l-4,9.1c-0.4,1.5-1.8,2.4-3.4,2.3
	c-1.6,0-2.5-0.5-2.5-1.4c0-0.5,0.4-1,0.9-1c0,0,0,0,0,0c0.2,0,0.4,0.1,0.6,0.1c0.4,0.1,0.7,0.2,1.1,0.2c0.7,0,1.2-0.2,1.8-1.9
	c-0.5-0.2-1-0.6-1.1-1.2L138.9,201.1z"/>
<path class="st3" d="M170.2,210c-0.9,0.1-1.7-0.6-1.7-1.5c0-0.2,0-0.3,0-0.5v-10.2c-0.1-0.9,0.5-1.7,1.4-1.8c0.1,0,0.2,0,0.2,0h3.4
	c3.6,0,5.9,3,5.9,7c0,3.6-1.9,7-5.6,7L170.2,210L170.2,210z M170.5,207.4c0,0.3,0.2,0.6,0.4,0.6c0,0,0.1,0,0.1,0h2.3
	c3,0,3.9-2.7,3.9-4.9s-0.7-4.9-4.4-4.9h-1.6c-0.4-0.1-0.8,0.2-0.9,0.6c0,0.1,0,0.2,0,0.3L170.5,207.4L170.5,207.4z"/>
<path class="st3" d="M189,202.9c0-0.4-0.2-0.8-0.4-1.1c-0.5-0.5-1.2-0.7-1.8-0.6c-0.9-0.1-1.8,0.2-2.5,0.7c-0.2,0.2-0.5,0.4-0.9,0.4
	c-0.5,0-0.9-0.5-0.9-1c0,0,0,0,0,0c0-1,1.8-1.9,4-1.9c1.3-0.1,2.6,0.3,3.6,1.1c0.5,0.6,0.8,1.3,0.8,2.1v4.9c0,0.4,0.1,0.8,0.2,1.2
	c0.1,0.3,0.2,0.6,0.3,0.9c0,0.5-0.5,0.8-0.9,0.8c0,0,0,0,0,0c-0.6,0-1.1-0.5-1.1-1.2c0,0,0-0.1,0-0.1c-0.9,0.9-2.1,1.3-3.3,1.2
	c-3.6,0-4.1-2.5-4.1-3.5c0-1,0.6-3.6,4.6-3.6c0.9,0,1.7,0.1,2.5,0.5L189,202.9L189,202.9z M189,205.8c0,0-0.3-0.8-2.3-0.8
	c-0.9,0-2.9,0-2.9,1.8c0.1,1.1,1,1.8,2.1,1.7c0,0,0.1,0,0.1,0c1.3,0.2,2.5-0.6,2.9-1.8V205.8z"/>
<path class="st3" d="M194.3,201.6c-0.5,0-0.9-0.4-0.8-0.9c0,0,0,0,0,0c0-0.5,0.4-0.9,0.8-0.9c0.1,0,0.1,0,0.2,0h1v-2
	c0-0.5,0.4-0.9,0.9-0.9c0,0,0,0,0,0c0.5,0,0.9,0.4,0.9,0.9c0,0,0,0,0,0.1v1.9h2.3c0.5,0,0.9,0.4,0.8,0.9c0,0,0,0,0,0
	c0,0.5-0.4,0.8-0.8,0.9h-2.3v6c-0.1,0.3,0.1,0.7,0.4,0.7c0,0,0.1,0,0.1,0c0.5-0.1,0.9-0.5,1.1-1c0.2-0.2,0.4-0.3,0.7-0.3
	c0.5,0,0.9,0.5,0.9,1c-0.2,1.4-1.3,2.4-2.7,2.4c-1.3,0.1-2.3-0.9-2.4-2.1c0-0.2,0-0.4,0-0.6v-6.1H194.3L194.3,201.6z"/>
<path class="st3" d="M209.5,202.9c0-0.4-0.2-0.8-0.4-1.1c-0.5-0.5-1.2-0.7-1.8-0.6c-0.9-0.1-1.8,0.2-2.5,0.7
	c-0.2,0.2-0.5,0.4-0.9,0.4c-0.5,0-0.9-0.5-0.9-1c0,0,0,0,0,0c0-1,1.8-1.9,4-1.9c1.3-0.1,2.6,0.3,3.6,1.1c0.5,0.6,0.8,1.3,0.8,2.1
	v4.9c0,0.4,0.1,0.8,0.2,1.2c0.1,0.3,0.2,0.6,0.3,0.9c0,0.5-0.5,0.8-0.9,0.8c0,0,0,0,0,0c-0.6,0-1.1-0.5-1.1-1.2c0,0,0-0.1,0-0.1
	c-0.9,0.9-2.1,1.3-3.3,1.2c-3.6,0-4.1-2.5-4.1-3.5c0-1,0.6-3.6,4.6-3.6c0.9,0,1.7,0.1,2.5,0.5L209.5,202.9L209.5,202.9z
	 M209.5,205.8c0,0-0.3-0.8-2.3-0.8c-0.9,0-2.9,0-2.9,1.8c0.1,1.1,1,1.8,2.1,1.7c0,0,0.1,0,0.1,0c1.3,0.2,2.5-0.6,2.9-1.8V205.8z"/>
<path class="st3" d="M214.7,196.7c-0.1-0.5,0.1-1,0.6-1.2c0.5-0.1,1,0.1,1.2,0.6c0,0.2,0,0.3,0,0.5v3.9c0.8-0.8,1.8-1.2,2.9-1.2
	c2.8,0,4.1,2.5,4.1,5.5s-1.4,5.5-4.3,5.5c-1.1,0.1-2.2-0.4-2.9-1.4c0.1,0.6-0.3,1.2-0.9,1.4c0,0,0,0,0,0c-0.8,0-0.8-0.8-0.8-1.6
	L214.7,196.7L214.7,196.7z M216.6,205.9c0,1.4,1.2,2.5,2.6,2.5c2.4,0,2.5-2.6,2.5-3.6c0-1.1-0.2-3.5-2.5-3.5c-1.4,0-2.6,1.1-2.6,2.5
	V205.9L216.6,205.9z"/>
<path class="st3" d="M233.3,202.9c0-0.4-0.2-0.8-0.4-1.1c-0.5-0.5-1.2-0.7-1.8-0.6c-0.9-0.1-1.8,0.2-2.5,0.7
	c-0.2,0.2-0.5,0.4-0.9,0.4c-0.5,0-0.9-0.5-0.9-1c0,0,0,0,0,0c0-1,1.8-1.9,4-1.9c1.3-0.1,2.6,0.3,3.6,1.1c0.5,0.6,0.8,1.3,0.8,2.1
	v4.9c0,0.4,0.1,0.8,0.2,1.2c0.1,0.3,0.2,0.6,0.3,0.9c0,0.5-0.5,0.8-0.9,0.8c0,0,0,0,0,0c-0.6,0-1.1-0.5-1.1-1.2c0,0,0-0.1,0-0.1
	c-0.9,0.9-2.1,1.3-3.3,1.2c-3.6,0-4.1-2.5-4.1-3.5c0-1,0.6-3.6,4.6-3.6c0.9,0,1.7,0.1,2.5,0.5L233.3,202.9L233.3,202.9z
	 M233.3,205.8c0,0-0.3-0.8-2.3-0.8c-0.9,0-2.9,0-2.9,1.8c0.1,1.1,1,1.8,2.1,1.7c0,0,0.1,0,0.1,0c1.3,0.2,2.5-0.6,2.9-1.8V205.8z"/>
<path class="st3" d="M237.8,207.5c0-0.5,0.4-0.9,0.8-0.9c0,0,0,0,0.1,0c0.5,0,0.9,0.3,1,0.7c0.6,0.8,1.6,1.2,2.6,1.2
	c0.9,0.1,1.7-0.5,1.8-1.3c0-0.1,0-0.1,0-0.2c0-0.9-0.9-1.2-2.1-1.5c-3.1-0.7-3.8-1.8-3.8-3.1c0.1-1.8,1.7-3.2,3.5-3.1
	c0,0,0.1,0,0.1,0c1.8,0,3.9,1.1,3.9,2.1c0,0.5-0.4,0.9-0.8,0.9c0,0,0,0,0,0c-0.4,0-0.8-0.3-1.1-0.6c-0.5-0.4-1.2-0.6-1.8-0.6
	c-0.8-0.2-1.6,0.4-1.8,1.2c0,0,0,0,0,0.1c0,0.8,0.4,0.9,2.9,1.6c1.6,0,2.9,1.4,3,3c-0.2,2-1.9,3.5-3.9,3.3c0,0,0,0,0,0
	C240.3,210.5,238.5,209.3,237.8,207.5z"/>
<path class="st3" d="M250.5,205.5c-0.2,1.5,0.8,2.8,2.3,3.1c0.1,0,0.1,0,0.2,0c0.9,0,1.7-0.6,2.1-1.4c0.2-0.3,0.5-0.5,0.8-0.5
	c0.5,0,0.8,0.4,0.8,0.9c0,0,0,0,0,0c-0.4,1.7-1.9,2.8-3.6,2.7c-1.5,0-4.4-0.7-4.4-5.5c-0.2-1.5,0.3-3.1,1.3-4.3
	c0.7-0.8,1.8-1.3,2.9-1.3c2.3,0.1,4,2,4,4.2c0,0.1,0,0.2,0,0.3c0,1-0.3,1.6-1.3,1.6L250.5,205.5L250.5,205.5z M254.4,203.7
	c0.4,0,0.4-0.1,0.4-0.3c0.1-1.2-0.8-2.2-2-2.2c0,0,0,0,0,0c-1.3,0.1-2.3,1.3-2.2,2.6L254.4,203.7L254.4,203.7z"/>
<polygon class="st3" points="150.8,215.9 150.2,215.9 163.2,191.4 163.8,191.4 "/>
</svg>
